<?xml version="1.0" encoding="UTF-8"?>
<svg version="1.1" xmlns="http://www.w3.org/2000/svg" width="500" height="500">
<path d="M0 0 C2.92979586 -0.03631978 5.84451437 0.00899518 8.7734375 0.08984375 C10.73216797 0.13238281 10.73216797 0.13238281 12.73046875 0.17578125 C47.05236257 1.27881911 83.88774522 12.27613628 112.7734375 31.08984375 C113.7015625 31.6828125 114.6296875 32.27578125 115.5859375 32.88671875 C122.33323964 37.27949358 128.72731636 42.02622304 135.05859375 46.98828125 C136.9127561 48.42358966 138.82245641 49.78918969 140.7734375 51.08984375 C140.7734375 51.74984375 140.7734375 52.40984375 140.7734375 53.08984375 C141.65745239 53.48598877 141.65745239 53.48598877 142.55932617 53.89013672 C144.85790899 55.13561427 146.36283267 56.43536589 148.19921875 58.28515625 C148.82731445 58.91421875 149.45541016 59.54328125 150.10253906 60.19140625 C150.75706055 60.85914063 151.41158203 61.526875 152.0859375 62.21484375 C152.76237305 62.900625 153.43880859 63.58640625 154.13574219 64.29296875 C193.02219838 103.91384227 214.48895554 157.56596137 214.9609375 212.96484375 C214.91656175 215.34025151 214.8539716 217.71538686 214.7734375 220.08984375 C214.74378906 221.37117187 214.71414063 222.6525 214.68359375 223.97265625 C214.03082725 243.52277815 209.6938308 262.51342252 203.7734375 281.08984375 C203.56074219 281.76370117 203.34804688 282.43755859 203.12890625 283.13183594 C200.20401164 292.25090251 196.24065284 300.64620578 191.7734375 309.08984375 C191.06574219 310.45689453 191.06574219 310.45689453 190.34375 311.8515625 C183.96080049 323.91425521 176.86809318 335.33258297 167.90234375 345.63671875 C165.77537935 348.00901199 165.77537935 348.00901199 164.11328125 350.41796875 C163.67113281 350.9696875 163.22898437 351.52140625 162.7734375 352.08984375 C162.1134375 352.08984375 161.4534375 352.08984375 160.7734375 352.08984375 C160.309375 353.01796875 160.309375 353.01796875 159.8359375 353.96484375 C159.1484375 355.33984375 158.4609375 356.71484375 157.7734375 358.08984375 C157.1134375 358.08984375 156.4534375 358.08984375 155.7734375 358.08984375 C155.7734375 358.74984375 155.7734375 359.40984375 155.7734375 360.08984375 C155.1134375 360.08984375 154.4534375 360.08984375 153.7734375 360.08984375 C153.7734375 360.74984375 153.7734375 361.40984375 153.7734375 362.08984375 C153.1134375 362.08984375 152.4534375 362.08984375 151.7734375 362.08984375 C151.7734375 362.74984375 151.7734375 363.40984375 151.7734375 364.08984375 C150.41015625 365.5 150.41015625 365.5 148.4609375 367.15234375 C147.38005859 368.06886719 147.38005859 368.06886719 146.27734375 369.00390625 C145.45105469 369.69226563 144.62476563 370.380625 143.7734375 371.08984375 C142.81308594 371.90195312 141.85273438 372.7140625 140.86328125 373.55078125 C133.03497141 380.08984375 133.03497141 380.08984375 130.7734375 380.08984375 C130.7734375 380.74984375 130.7734375 381.40984375 130.7734375 382.08984375 C129.1234375 382.74984375 127.4734375 383.40984375 125.7734375 384.08984375 C125.7734375 384.74984375 125.7734375 385.40984375 125.7734375 386.08984375 C123.69797871 387.60477717 121.63819956 388.98508421 119.4609375 390.33984375 C118.49752441 390.94590454 118.49752441 390.94590454 117.51464844 391.56420898 C107.02932794 398.10384759 96.16834637 403.30096857 84.83886719 408.19091797 C83.11346051 408.94185738 81.39900976 409.71790503 79.6875 410.5 C65.20351926 416.9534642 49.39188741 420.64338531 33.7734375 423.08984375 C32.63390625 423.29480469 31.494375 423.49976563 30.3203125 423.7109375 C9.16932455 427.03008604 -13.25826817 426.04586195 -34.2265625 422.08984375 C-35.5649027 421.85820795 -36.90343535 421.62768045 -38.2421875 421.3984375 C-61.03107833 417.22683091 -83.25672658 408.83680606 -103.2265625 397.08984375 C-104.44859375 396.40921875 -104.44859375 396.40921875 -105.6953125 395.71484375 C-118.3592339 388.47831724 -129.68595661 379.1605426 -140.578125 369.52490234 C-141.76676633 368.49012247 -142.97211704 367.4744271 -144.1875 366.47119141 C-144.82945312 365.93929199 -145.47140625 365.40739258 -146.1328125 364.859375 C-146.72384766 364.37702393 -147.31488281 363.89467285 -147.92382812 363.39770508 C-149.2265625 362.08984375 -149.2265625 362.08984375 -149.2265625 360.08984375 C-149.8865625 360.08984375 -150.5465625 360.08984375 -151.2265625 360.08984375 C-152.71582031 358.61669922 -152.71582031 358.61669922 -154.4296875 356.58203125 C-155.05294922 355.84823242 -155.67621094 355.11443359 -156.31835938 354.35839844 C-156.94806641 353.60977539 -157.57777344 352.86115234 -158.2265625 352.08984375 C-159.34601456 350.80048631 -160.46579566 349.51141448 -161.5859375 348.22265625 C-198.65159241 304.74532364 -213.89977068 247.76248672 -209.44921875 191.37304688 C-208.88557907 185.59326803 -207.82056216 179.90967551 -206.65917969 174.22412109 C-206.2256331 172.08525863 -205.82337869 169.94195462 -205.421875 167.796875 C-201.14727906 145.97008545 -192.34776493 124.31771023 -181.2265625 105.08984375 C-180.5665625 105.08984375 -179.9065625 105.08984375 -179.2265625 105.08984375 C-179.12859375 104.53941406 -179.030625 103.98898438 -178.9296875 103.421875 C-177.44866569 98.50981932 -174.04947447 94.32719576 -171.2265625 90.08984375 C-170.73027344 89.33960937 -170.23398438 88.589375 -169.72265625 87.81640625 C-168.61664908 86.19866442 -167.42968883 84.63672046 -166.2265625 83.08984375 C-165.5665625 83.08984375 -164.9065625 83.08984375 -164.2265625 83.08984375 C-163.9996875 82.57421875 -163.7728125 82.05859375 -163.5390625 81.52734375 C-161.74438632 78.1943737 -159.72691235 74.94280704 -157.2265625 72.08984375 C-156.5665625 72.08984375 -155.9065625 72.08984375 -155.2265625 72.08984375 C-155.2265625 71.42984375 -155.2265625 70.76984375 -155.2265625 70.08984375 C-154.5665625 70.08984375 -153.9065625 70.08984375 -153.2265625 70.08984375 C-152.989375 69.5278125 -152.7521875 68.96578125 -152.5078125 68.38671875 C-150.93708553 65.57090333 -149.01184786 63.61028959 -146.7265625 61.33984375 C-145.9325 60.540625 -145.1384375 59.74140625 -144.3203125 58.91796875 C-142.2265625 57.08984375 -142.2265625 57.08984375 -140.2265625 57.08984375 C-140.2265625 56.42984375 -140.2265625 55.76984375 -140.2265625 55.08984375 C-139.5665625 55.08984375 -138.9065625 55.08984375 -138.2265625 55.08984375 C-138.2265625 54.42984375 -138.2265625 53.76984375 -138.2265625 53.08984375 C-123.96386934 40.08984375 -123.96386934 40.08984375 -119.2265625 40.08984375 C-119.2265625 39.42984375 -119.2265625 38.76984375 -119.2265625 38.08984375 C-112.44156125 32.99781187 -104.73325172 29.00637725 -97.2265625 25.08984375 C-96.6480957 24.78433594 -96.06962891 24.47882812 -95.47363281 24.1640625 C-65.28917758 8.28915781 -33.96332083 0.9457099 0 0 Z " fill="#36BD5E" transform="translate(244.2265625,37.91015625)"/>
<path d="M0 0 C0.81210937 0.57363281 1.62421875 1.14726562 2.4609375 1.73828125 C17.92579615 13.22986083 26.49919897 30.86357268 29.59375 49.59375 C30.25554973 55.45922263 30.18424303 61.35488104 30.1875 67.25 C30.19974609 68.40113281 30.21199219 69.55226563 30.22460938 70.73828125 C30.26330891 93.6226083 23.25627196 113.92107608 8 131 C0.13320865 138.78154748 -9.31328931 143.85887249 -19 149 C-7.37875534 167.77973397 -7.37875534 167.77973397 10 180 C15.76790826 180.80750716 20.3292284 181.23637098 25.125 177.6875 C26.43760339 175.80610181 27.72749952 173.90875072 29 172 C32.3 172.66 35.6 173.32 39 174 C37.01749715 181.93001141 33.80638345 187.33408555 27 192 C16.7970928 197.2258793 0.01324958 196.73673987 -10.6875 193.3125 C-12.47930091 192.59174746 -14.25310718 191.82365054 -16 191 C-16.80566406 190.62617188 -17.61132812 190.25234375 -18.44140625 189.8671875 C-23.88127273 187.08742493 -28.84138945 183.49855147 -33 179 C-33 178.34 -33 177.68 -33 177 C-33.66 177 -34.32 177 -35 177 C-36.48046875 175.56640625 -36.48046875 175.56640625 -38.1875 173.5625 C-38.80882812 172.83546875 -39.43015625 172.1084375 -40.0703125 171.359375 C-42.5176462 168.36708845 -44.84355304 165.29320819 -47.12890625 162.17578125 C-53.11934502 155.20986393 -58.38281971 153.76616057 -67.25 151.9375 C-89.52222381 147.19901138 -107.25242147 136.9890722 -120.0625 117.625 C-132.55596494 95.92053544 -134.53924568 67.66042208 -128.1328125 43.78515625 C-124.85716494 32.83997528 -119.9275996 22.15432804 -113 13 C-112.34 13 -111.68 13 -111 13 C-110.72671875 12.40574219 -110.4534375 11.81148437 -110.171875 11.19921875 C-103.55795045 -1.212913 -86.83626763 -8.36879008 -74.05883789 -12.41894531 C-49.54769537 -19.33659255 -20.55305682 -15.28769774 0 0 Z " fill="#FAFDFA" transform="translate(296,166)"/>
<path d="M0 0 C14.23110209 8.79499788 20.24239512 21.94552837 24.515625 37.5546875 C24.7321875 38.31394531 24.94875 39.07320312 25.171875 39.85546875 C31.591004 64.91839152 29.76872749 99.16119255 17.203125 122.0546875 C10.53386638 132.60242056 3.45115792 137.39153824 -8.3984375 141.1640625 C-18.99483294 143.14840622 -28.78272025 141.830454 -37.84765625 136.046875 C-51.73355132 126.01169033 -58.54258527 110.02345678 -61.484375 93.5546875 C-61.7628125 92.17216797 -61.7628125 92.17216797 -62.046875 90.76171875 C-66.35028192 66.22632237 -65.4295488 35.14360629 -51.484375 13.5546875 C-49.00581969 10.36318867 -46.47100414 7.28418963 -43.484375 4.5546875 C-42.824375 4.5546875 -42.164375 4.5546875 -41.484375 4.5546875 C-41.484375 3.8946875 -41.484375 3.2346875 -41.484375 2.5546875 C-28.92842434 -4.97888289 -13.47353986 -6.66149876 0 0 Z " fill="#37BD5E" transform="translate(263.484375,166.4453125)"/>
<path d="M0 0 C0 0.66 0 1.32 0 2 C-1.11375 2.4125 -2.2275 2.825 -3.375 3.25 C-5.99320695 4.35546516 -6.83493089 4.74880787 -8.4375 7.1875 C-8.7159375 8.0846875 -8.7159375 8.0846875 -9 9 C-10.32 9 -11.64 9 -13 9 C-15.51688633 9.70942635 -15.51688633 9.70942635 -18.0625 10.75 C-18.91972656 11.07484375 -19.77695313 11.3996875 -20.66015625 11.734375 C-23.27357525 13.14797726 -24.3115158 14.6026478 -26 17 C-28.375 17.6875 -28.375 17.6875 -31 18 C-31.928125 18.185625 -32.85625 18.37125 -33.8125 18.5625 C-34.534375 18.706875 -35.25625 18.85125 -36 19 C-36.268125 19.969375 -36.53625 20.93875 -36.8125 21.9375 C-37.204375 22.948125 -37.59625 23.95875 -38 25 C-40.33693224 25.77897741 -42.61642277 26.40410569 -45 27 C-45.99 27.33 -46.98 27.66 -48 28 C-48.28875 28.61875 -48.5775 29.2375 -48.875 29.875 C-50.37403077 32.70650257 -52.21316711 33.50462626 -55 35 C-55.99 35.66 -56.98 36.32 -58 37 C-59.485 37.495 -59.485 37.495 -61 38 C-61.28875 38.66 -61.5775 39.32 -61.875 40 C-63 42 -63 42 -65.625 42.75 C-66.40875 42.8325 -67.1925 42.915 -68 43 C-68 42.34 -68 41.68 -68 41 C-67.34 41 -66.68 41 -66 41 C-66 40.34 -66 39.68 -66 39 C-51.73730684 26 -51.73730684 26 -47 26 C-47 25.34 -47 24.68 -47 24 C-37.76124308 17.06646482 -27.03843656 11.98693308 -16.75 6.8125 C-15.75770386 6.31278687 -15.75770386 6.31278687 -14.74536133 5.80297852 C-3.10000766 0 -3.10000766 0 0 0 Z " fill="#64C37D" transform="translate(172,52)"/>
<path d="M0 0 C0 0.33 0 0.66 0 1 C-5.32300193 2.061769 -10.6557656 3.05115731 -16 4 C-17.16660156 4.21269531 -18.33320313 4.42539062 -19.53515625 4.64453125 C-40.68657914 7.90039812 -63.03469797 6.92661175 -84 3 C-84 2.67 -84 2.34 -84 2 C-82.06258631 1.97227866 -80.12504767 1.9532891 -78.1875 1.9375 C-77.10855469 1.92589844 -76.02960938 1.91429687 -74.91796875 1.90234375 C-71.88816811 1.97786221 -68.99500419 2.18411212 -65.98828125 2.49609375 C-58.9938589 3.17007449 -52.02141246 3.14625554 -45 3.125 C-43.69160156 3.12886719 -42.38320312 3.13273437 -41.03515625 3.13671875 C-39.78605469 3.13542969 -38.53695312 3.13414062 -37.25 3.1328125 C-35.55617188 3.13112061 -35.55617188 3.13112061 -33.828125 3.12939453 C-30.92113811 3.12512258 -30.92113811 3.12512258 -28 2 C-25.33265737 1.60622205 -22.67680171 1.25091286 -20 0.9375 C-19.24340088 0.84807129 -18.48680176 0.75864258 -17.70727539 0.66650391 C-11.78908463 0.00606174 -5.95540504 -0.23152763 0 0 Z " fill="#73C689" transform="translate(294,457)"/>
<path d="M0 0 C0.83700439 -0.00128906 1.67400879 -0.00257813 2.53637695 -0.00390625 C9.19822153 0.10941014 14.81822702 1.3576581 20.8125 4.375 C20.8125 4.705 20.8125 5.035 20.8125 5.375 C17.61005084 5.52749758 15.19475272 5.5186275 12.171875 4.3828125 C7.92118254 3.10760476 4.09640536 3.08184595 -0.3125 3.125 C-1.11042969 3.11726562 -1.90835938 3.10953125 -2.73046875 3.1015625 C-6.77196631 3.11505665 -9.66032869 3.21098668 -13.1875 5.375 C-15.9375 5.5 -15.9375 5.5 -18.1875 5.375 C-18.1875 6.035 -18.1875 6.695 -18.1875 7.375 C-18.8475 7.375 -19.5075 7.375 -20.1875 7.375 C-20.414375 7.931875 -20.64125 8.48875 -20.875 9.0625 C-22.85561108 12.5521481 -25.71174816 15.12005891 -28.75390625 17.70703125 C-31.11143062 20.44998195 -31.50328048 23.74338412 -32.34375 27.1953125 C-32.6221875 27.91460937 -32.900625 28.63390625 -33.1875 29.375 C-34.1775 29.705 -35.1675 30.035 -36.1875 30.375 C-37.40654148 26.71787555 -36.91670276 26.10470523 -35.25 22.75 C-32.38894061 17.28505509 -28.74762772 12.54253395 -24.1875 8.375 C-23.5275 8.375 -22.8675 8.375 -22.1875 8.375 C-22.1875 7.715 -22.1875 7.055 -22.1875 6.375 C-14.74507178 1.90954307 -8.69741738 -0.01380953 0 0 Z " fill="#55B974" transform="translate(244.1875,162.625)"/>
<path d="M0 0 C7.05575012 13.33488458 5.33211583 34.25103806 5 49 C4.97164063 50.29035156 4.94328125 51.58070313 4.9140625 52.91015625 C4.48560101 65.12793454 2.28715883 77.01109167 0 89 C-2.00666011 85.72496152 -2.11637966 83.94616132 -1.3203125 80.22265625 C-1.13299561 79.25142822 -0.94567871 78.2802002 -0.75268555 77.27954102 C-0.54554932 76.21791748 -0.33841309 75.15629395 -0.125 74.0625 C1.94761418 62.33584472 2.37867197 50.9409462 2.3125 39.0625 C2.30799835 37.82283981 2.30799835 37.82283981 2.30340576 36.55813599 C2.29101186 34.19609947 2.26808476 31.83453287 2.23828125 29.47265625 C2.23074326 28.76125488 2.22320526 28.04985352 2.21543884 27.31689453 C2.15691627 24.28329266 1.9668682 21.90060459 1 19 C0.85426942 17.52034074 0.75336732 16.03596157 0.68359375 14.55078125 C0.64169922 13.70322266 0.59980469 12.85566406 0.55664062 11.98242188 C0.51732422 11.10134766 0.47800781 10.22027344 0.4375 9.3125 C0.39431641 8.41982422 0.35113281 7.52714844 0.30664062 6.60742188 C0.20064647 4.40509892 0.09857949 2.20266527 0 0 Z " fill="#7CC691" transform="translate(454,209)"/>
<path d="M0 0 C1.17736641 3.65442301 1.02732434 6.97798968 0.87890625 10.79296875 C0.85524994 11.45255081 0.83159363 12.11213287 0.80722046 12.79170227 C0.75645812 14.198298 0.70329074 15.60480866 0.6479187 17.01123047 C0.50564759 20.63596701 0.3814219 24.26130465 0.2578125 27.88671875 C0.23341599 28.59428314 0.20901947 29.30184753 0.18388367 30.03085327 C-0.0715463 37.69016953 -0.10385727 45.33764115 0 53 C1.32 53 2.64 53 4 53 C3.89171875 53.97839844 3.89171875 53.97839844 3.78125 54.9765625 C3.28243834 59.6737056 2.87548754 64.26852656 3 69 C0.45262164 65.17893246 -0.1745823 61.4382075 -1 57 C-1.18820313 56.06800781 -1.37640625 55.13601563 -1.5703125 54.17578125 C-4.50361478 37.38159284 -5.46401674 16.39205021 0 0 Z " fill="#62C07E" transform="translate(203,203)"/>
<path d="M0 0 C8.93570329 -0.11077318 17.85924956 0.53518317 26.7734375 1.08984375 C26.7734375 1.41984375 26.7734375 1.74984375 26.7734375 2.08984375 C25.58379395 2.10966309 24.39415039 2.12948242 23.16845703 2.14990234 C18.71399361 2.22652983 14.25983279 2.31515462 9.80566406 2.40722656 C7.88547787 2.44528198 5.96522606 2.48017371 4.04492188 2.51171875 C1.26929419 2.55788304 -1.50589075 2.61578714 -4.28125 2.67578125 C-5.54906815 2.69310806 -5.54906815 2.69310806 -6.84249878 2.71078491 C-12.03658535 2.83662987 -16.86379383 3.48693315 -21.93017578 4.64782715 C-25.73292842 5.37979437 -29.49410575 5.30375676 -33.3515625 5.21484375 C-34.11726562 5.20582031 -34.88296875 5.19679688 -35.671875 5.1875 C-37.52357897 5.1643537 -39.37511749 5.12850501 -41.2265625 5.08984375 C-41.2265625 4.75984375 -41.2265625 4.42984375 -41.2265625 4.08984375 C-27.45249907 1.63735093 -13.97451542 0.38912089 0 0 Z " fill="#73C68C" transform="translate(244.2265625,37.91015625)"/>
<path d="M0 0 C0.33 0 0.66 0 1 0 C5.50581082 17.12208111 5.00027358 36.47651048 3.125 54 C3.04660889 54.74741455 2.96821777 55.4948291 2.88745117 56.26489258 C2.44496214 59.93165454 1.7508581 62.76709882 0 66 C0.0707373 64.99324219 0.14147461 63.98648438 0.21435547 62.94921875 C0.89337111 52.75523746 1.15777549 42.60711789 1.13037109 32.39160156 C1.12487851 29.94590409 1.13042789 27.50038038 1.13671875 25.0546875 C1.13606001 23.49479126 1.13478311 21.93489513 1.1328125 20.375 C1.13483673 19.64603516 1.13686096 18.91707031 1.13894653 18.16601562 C1.42069454 14.79737543 1.42069454 14.79737543 0 12 C-0.07244053 9.98035801 -0.08377188 7.95832876 -0.0625 5.9375 C-0.05347656 4.83277344 -0.04445313 3.72804687 -0.03515625 2.58984375 C-0.02355469 1.73519531 -0.01195312 0.88054687 0 0 Z " fill="#5EBA78" transform="translate(287,204)"/>
<path d="M0 0 C-0.66 2.31 -1.32 4.62 -2 7 C-1.34 7.33 -0.68 7.66 0 8 C0 8.99 0 9.98 0 11 C0.99 11 1.98 11 3 11 C3.433125 12.134375 3.86625 13.26875 4.3125 14.4375 C5.1478125 16.2009375 5.1478125 16.2009375 6 18 C6.99 18.33 7.98 18.66 9 19 C9 20.65 9 22.3 9 24 C5.07748856 21.10316293 2.27291641 18.03868093 -0.625 14.125 C-1.38039063 13.11695313 -2.13578125 12.10890625 -2.9140625 11.0703125 C-4.90739258 8.1363098 -6.49658415 5.20792554 -8 2 C-4.91190305 0.23537317 -3.76687864 0 0 0 Z " fill="#4CBA6F" transform="translate(284,312)"/>
<path d="M0 0 C3 1 3 1 5 4 C5.30972319 6.66560817 5.51361436 9.24722531 5.6328125 11.921875 C5.67437469 12.70008606 5.71593689 13.47829712 5.75875854 14.28009033 C5.88939243 16.76970496 6.00712698 19.25975206 6.125 21.75 C6.21144203 23.41150002 6.29867288 25.0729592 6.38671875 26.734375 C7.15247189 41.58594099 7.15247189 41.58594099 7 47 C6.505 47.495 6.505 47.495 6 48 C5.63239269 50.32817964 5.29758419 52.6618385 5 55 C4.67 55 4.34 55 4 55 C4.01571045 54.02353516 4.0314209 53.04707031 4.04760742 52.04101562 C4.10288119 48.33586238 4.13669494 44.63074344 4.16479492 40.92529297 C4.17966405 39.33701402 4.19996555 37.74877445 4.22631836 36.16064453 C4.42878545 23.62356444 3.1535172 12.178574 0 0 Z " fill="#63C282" transform="translate(321,200)"/>
<path d="M0 0 C0.67546875 0.20496094 1.3509375 0.40992188 2.046875 0.62109375 C2.93890625 0.89050781 3.8309375 1.15992188 4.75 1.4375 C5.63171875 1.70433594 6.5134375 1.97117187 7.421875 2.24609375 C8.27265625 2.49488281 9.1234375 2.74367188 10 3 C10.89525391 3.26780273 10.89525391 3.26780273 11.80859375 3.54101562 C14.46659971 4.0977281 16.92482385 4.112102 19.640625 4.09765625 C20.71054687 4.09443359 21.78046875 4.09121094 22.8828125 4.08789062 C23.99398438 4.07951172 25.10515625 4.07113281 26.25 4.0625 C27.37664062 4.05798828 28.50328125 4.05347656 29.6640625 4.04882812 C32.44276217 4.03705397 35.22135409 4.0206084 38 4 C37.34 4.99 36.68 5.98 36 7 C32.95733064 7.30850127 30.16605686 7.42447174 27.125 7.375 C26.26890137 7.36774902 25.41280273 7.36049805 24.53076172 7.35302734 C15.77760319 7.16349369 8.07836545 5.32979221 0 2 C0 1.34 0 0.68 0 0 Z " fill="#57B874" transform="translate(278,356)"/>
<path d="M0 0 C1 3 1 3 1 5 C2.32 4.34 3.64 3.68 5 3 C5.433125 3.804375 5.86625 4.60875 6.3125 5.4375 C7.80474002 8.27846354 7.80474002 8.27846354 11 9 C13.9791794 11.29167646 14.5047783 13.33535945 15 17 C12.15741394 15.68761832 9.90591755 14.23292824 7.546875 12.1796875 C6.928125 11.64472656 6.309375 11.10976563 5.671875 10.55859375 C5.03765625 10.00300781 4.4034375 9.44742187 3.75 8.875 C3.1003125 8.31167969 2.450625 7.74835938 1.78125 7.16796875 C0.184273 5.78235636 -1.40830122 4.39167246 -3 3 C-2.01 2.01 -1.02 1.02 0 0 Z " fill="#5FC379" transform="translate(105,403)"/>
<path d="M0 0 C-10.72012626 4.47171002 -21.90134172 6.24260637 -33 2 C-33 1.67 -33 1.34 -33 1 C-32.40574219 1.01047363 -31.81148437 1.02094727 -31.19921875 1.03173828 C-28.46619011 1.07371131 -25.73322963 1.0994558 -23 1.125 C-21.59814453 1.15013672 -21.59814453 1.15013672 -20.16796875 1.17578125 C-15.77627341 1.20649241 -11.81174547 1.10236888 -7.5625 -0.0703125 C-4.13276629 -0.96535266 -3.18225308 -0.99926244 0 0 Z " fill="#5DBF7B" transform="translate(265,304)"/>
<path d="M0 0 C12.996139 1.33075933 12.996139 1.33075933 17 4 C20.63104503 4.85436354 24.27970258 5.5291056 27.9453125 6.21875 C28.95335937 6.4765625 29.96140625 6.734375 31 7 C31.33 7.66 31.66 8.32 32 9 C25.06285685 8.42486326 18.73416404 7.01758356 12.0625 5.0625 C10.64614258 4.66514648 10.64614258 4.66514648 9.20117188 4.25976562 C2.25635846 2.25635846 2.25635846 2.25635846 0 0 Z " fill="#73C788" transform="translate(176,450)"/>
<path d="M0 0 C3.3 0.66 6.6 1.32 10 2 C9.20190089 5.19239645 8.41362874 7.39297664 6.9375 10.25 C6.57527344 10.95640625 6.21304687 11.6628125 5.83984375 12.390625 C5.42412109 13.18726563 5.42412109 13.18726563 5 14 C4.67 12.68 4.34 11.36 4 10 C4.66 10 5.32 10 6 10 C5.34 8.02 4.68 6.04 4 4 C2.35 3.67 0.7 3.34 -1 3 C-0.67 2.01 -0.34 1.02 0 0 Z " fill="#ECFBEF" transform="translate(325,338)"/>
<path d="M0 0 C0.66 0 1.32 0 2 0 C2.66 0.66 3.32 1.32 4 2 C4.66 2 5.32 2 6 2 C6 2.99 6 3.98 6 5 C6.66 5 7.32 5 8 5 C8 5.99 8 6.98 8 8 C8.99 7.67 9.98 7.34 11 7 C12.5625 9.25 12.5625 9.25 14 12 C13.58984375 14.171875 13.58984375 14.171875 13 16 C8.08845466 11.3078289 3.72077424 6.69743556 0 1 C0 0.67 0 0.34 0 0 Z " fill="#6EC785" transform="translate(79,380)"/>
<path d="M0 0 C0.33 0 0.66 0 1 0 C0.48594831 4.96916636 -0.23384882 9.29026351 -2 14 C-2.66 14 -3.32 14 -4 14 C-4.144375 14.5775 -4.28875 15.155 -4.4375 15.75 C-4.95833333 17.83333333 -5.47916667 19.91666667 -6 22 C-6.66 22 -7.32 22 -8 22 C-8.33 23.65 -8.66 25.3 -9 27 C-10.12508747 23.62473759 -9.929046 23.13100889 -8.671875 19.98046875 C-8.36636719 19.20509766 -8.06085937 18.42972656 -7.74609375 17.63085938 C-7.41738281 16.82455078 -7.08867188 16.01824219 -6.75 15.1875 C-6.43675781 14.39279297 -6.12351563 13.59808594 -5.80078125 12.77929688 C-4.05849547 8.40912363 -2.17848121 4.17542231 0 0 Z " fill="#6DC886" transform="translate(55,159)"/>
<path d="M0 0 C1.12018319 3.36054957 0.90181274 4.01723271 -0.21484375 7.23046875 C-0.48876953 8.03291016 -0.76269531 8.83535156 -1.04492188 9.66210938 C-1.48674805 10.91217773 -1.48674805 10.91217773 -1.9375 12.1875 C-2.22818359 13.03248047 -2.51886719 13.87746094 -2.81835938 14.74804688 C-3.53757537 16.83495229 -4.2650343 18.91859994 -5 21 C-5.66 20.67 -6.32 20.34 -7 20 C-7 19.34 -7 18.68 -7 18 C-6.34 18 -5.68 18 -5 18 C-5.33 15.03 -5.66 12.06 -6 9 C-5.34 8.67 -4.68 8.34 -4 8 C-3.30341637 6.34561387 -2.63903117 4.67745682 -2 3 C-1.34 2.01 -0.68 1.02 0 0 Z " fill="#58BE73" transform="translate(450,306)"/>
<path d="M0 0 C1.32 0.33 2.64 0.66 4 1 C2.61211198 2.30020011 1.21430742 3.5898193 -0.1875 4.875 C-0.96480469 5.59429687 -1.74210937 6.31359375 -2.54296875 7.0546875 C-4.97689776 8.9817092 -7.07536646 10.01300111 -10 11 C-10 11.66 -10 12.32 -10 13 C-11.65 13.66 -13.3 14.32 -15 15 C-15.33 14.01 -15.66 13.02 -16 12 C-14.35 12 -12.7 12 -11 12 C-10.67 11.01 -10.34 10.02 -10 9 C-9.34 9 -8.68 9 -8 9 C-8.33 8.01 -8.66 7.02 -9 6 C-6.03 4.68 -3.06 3.36 0 2 C0 1.34 0 0.68 0 0 Z " fill="#72C289" transform="translate(385,407)"/>
<path d="M0 0 C1.00417969 0.00902344 2.00835937 0.01804688 3.04296875 0.02734375 C5.48724126 0.05062254 7.93098408 0.08331513 10.375 0.125 C10.375 0.455 10.375 0.785 10.375 1.125 C9.15683594 1.17398438 7.93867188 1.22296875 6.68359375 1.2734375 C5.05987563 1.34852273 3.43617874 1.42406802 1.8125 1.5 C0.61270508 1.54640625 0.61270508 1.54640625 -0.61132812 1.59375 C-5.58070626 1.83714811 -9.83327765 2.69669814 -14.625 4.125 C-17.49609375 4.3203125 -17.49609375 4.3203125 -20.0625 4.25 C-20.92746094 4.23195312 -21.79242188 4.21390625 -22.68359375 4.1953125 C-23.32425781 4.17210937 -23.96492187 4.14890625 -24.625 4.125 C-17.45683993 -0.65377338 -8.32707861 -0.14452873 0 0 Z " fill="#B6ECC5" transform="translate(245.625,150.875)"/>
<path d="M0 0 C4.54109672 4.26587874 8.24735246 9.03612328 12 14 C11.67 14.66 11.34 15.32 11 16 C10.44570313 15.566875 9.89140625 15.13375 9.3203125 14.6875 C8.59585937 14.130625 7.87140625 13.57375 7.125 13 C6.40570313 12.443125 5.68640625 11.88625 4.9453125 11.3125 C3.1147915 9.81356623 3.1147915 9.81356623 1 10 C1.020625 8.906875 1.04125 7.81375 1.0625 6.6875 C1.18544452 3.05615809 1.18544452 3.05615809 0 0 Z " fill="#76CA91" transform="translate(408,114)"/>
<path d="M0 0 C5.15911242 9.76087283 4.27182581 22.2175762 4 33 C3.67 33 3.34 33 3 33 C2.90912109 31.86111328 2.90912109 31.86111328 2.81640625 30.69921875 C2.73261719 29.70535156 2.64882813 28.71148437 2.5625 27.6875 C2.44068359 26.20830078 2.44068359 26.20830078 2.31640625 24.69921875 C2.08187441 21.90624401 2.08187441 21.90624401 1 19 C0.85426942 17.52034074 0.75336732 16.03596157 0.68359375 14.55078125 C0.64169922 13.70322266 0.59980469 12.85566406 0.55664062 11.98242188 C0.51732422 11.10134766 0.47800781 10.22027344 0.4375 9.3125 C0.39431641 8.41982422 0.35113281 7.52714844 0.30664062 6.60742188 C0.20064647 4.40509892 0.09857949 2.20266527 0 0 Z " fill="#81C994" transform="translate(454,209)"/>
<path d="M0 0 C0.66 0 1.32 0 2 0 C0.54222434 4.48100358 -1.96122884 7.67554876 -5 11.1875 C-5.67675781 11.98704102 -5.67675781 11.98704102 -6.3671875 12.80273438 C-8.1841817 14.93958406 -10.01600482 17.01600482 -12 19 C-12.33 18.01 -12.66 17.02 -13 16 C-12.01 15.67 -11.02 15.34 -10 15 C-8.77479736 11.99152582 -8.77479736 11.99152582 -8 9 C-7.01 9 -6.02 9 -5 9 C-5 8.01 -5 7.02 -5 6 C-4.34 6 -3.68 6 -3 6 C-2.87625 5.38125 -2.7525 4.7625 -2.625 4.125 C-2 2 -2 2 0 0 Z " fill="#6DBE83" transform="translate(420,369)"/>
<path d="M0 0 C1 3 1 3 0.19555664 4.99291992 C-0.22862549 5.73131104 -0.65280762 6.46970215 -1.08984375 7.23046875 C-1.54423828 8.03291016 -1.99863281 8.83535156 -2.46679688 9.66210938 C-2.95212891 10.49548828 -3.43746094 11.32886719 -3.9375 12.1875 C-4.41896484 13.03248047 -4.90042969 13.87746094 -5.39648438 14.74804688 C-6.5887055 16.83738489 -7.79009818 18.92086675 -9 21 C-10.125 17.25 -10.125 17.25 -9 15 C-8.34 15 -7.68 15 -7 15 C-6.9175 13.88625 -6.835 12.7725 -6.75 11.625 C-6 8 -6 8 -3.9375 6.5625 C-2.9784375 6.2840625 -2.9784375 6.2840625 -2 6 C-2.33 4.68 -2.66 3.36 -3 2 C-2.01 2 -1.02 2 0 2 C0 1.34 0 0.68 0 0 Z " fill="#6BC381" transform="translate(438,339)"/>
<path d="M0 0 C2.0625 0.4375 2.0625 0.4375 4 1 C2.90081184 1.98475214 1.7954398 2.96260473 0.6875 3.9375 C0.07261719 4.48277344 -0.54226562 5.02804688 -1.17578125 5.58984375 C-3 7 -3 7 -6 8 C-6.28875 8.66 -6.5775 9.32 -6.875 10 C-8 12 -8 12 -10.625 12.75 C-11.40875 12.8325 -12.1925 12.915 -13 13 C-13 12.34 -13 11.68 -13 11 C-12.34 11 -11.68 11 -11 11 C-11 10.34 -11 9.68 -11 9 C-9.40591302 7.58528397 -7.74893135 6.24075901 -6.0625 4.9375 C-4.68771484 3.86822266 -4.68771484 3.86822266 -3.28515625 2.77734375 C-2.15400391 1.89755859 -2.15400391 1.89755859 -1 1 C-0.67 0.67 -0.34 0.34 0 0 Z " fill="#64BF7C" transform="translate(117,82)"/>
<path d="M0 0 C-1 3 -1 3 -2.75 3.94921875 C-8.38682571 5.79880219 -13.07018906 6.28237195 -19 6 C-16.4127495 3.4127495 -14.11722529 2.93443913 -10.625 1.875 C-9.48289063 1.52179687 -8.34078125 1.16859375 -7.1640625 0.8046875 C-4 0 -4 0 0 0 Z " fill="#72C78B" transform="translate(192,46)"/>
<path d="M0 0 C3.18678372 2.92352767 5.21723295 5.81612841 7.25 9.625 C7.77078125 10.58664063 8.2915625 11.54828125 8.828125 12.5390625 C10 15 10 15 10 17 C6.89246389 15.96415463 5.97963174 15.49605741 4 13 C3.29618843 11.01276732 2.6288189 9.01222047 2 7 C1.34 6.01 0.68 5.02 0 4 C0 2.68 0 1.36 0 0 Z " fill="#62C17C" transform="translate(424,136)"/>
<path d="M0 0 C0 0.66 0 1.32 0 2 C-0.99 2 -1.98 2 -3 2 C-3 2.66 -3 3.32 -3 4 C-6.97610786 6.71486934 -11.13901977 6.22440753 -15.75 6.125 C-16.54277344 6.11597656 -17.33554688 6.10695313 -18.15234375 6.09765625 C-20.10169281 6.07417012 -22.05088575 6.03830137 -24 6 C-24 5.67 -24 5.34 -24 5 C-22.62328125 4.83564453 -22.62328125 4.83564453 -21.21875 4.66796875 C-14.47740203 3.79697526 -6.44937759 0 0 0 Z " fill="#DCF9E3" transform="translate(267,303)"/>
<path d="M0 0 C0.33 0 0.66 0 1 0 C1.19865739 8.89543642 1.33447255 17.32910197 -1 26 C-3.04718475 22.66737366 -3.11814299 20.62771517 -2.5390625 16.796875 C-2.39726562 15.8171875 -2.25546875 14.8375 -2.109375 13.828125 C-1.94953125 12.81234375 -1.7896875 11.7965625 -1.625 10.75 C-1.47289062 9.71875 -1.32078125 8.6875 -1.1640625 7.625 C-0.78723779 5.08143318 -0.39884674 2.54019083 0 0 Z " fill="#62BF7A" transform="translate(455,272)"/>
<path d="M0 0 C2.31 0 4.62 0 7 0 C7.33 0.99 7.66 1.98 8 3 C10.31 3 12.62 3 15 3 C15 3.66 15 4.32 15 5 C15.99 5.33 16.98 5.66 18 6 C18 6.66 18 7.32 18 8 C11.79522136 6.06375702 5.89174281 3.74390859 0 1 C0 0.67 0 0.34 0 0 Z " fill="#63BF7D" transform="translate(152,440)"/>
<path d="M0 0 C0.66 0 1.32 0 2 0 C2 0.66 2 1.32 2 2 C3.13179687 2.02578125 4.26359375 2.0515625 5.4296875 2.078125 C6.91149743 2.13439626 8.39326677 2.19174382 9.875 2.25 C10.62136719 2.26417969 11.36773437 2.27835937 12.13671875 2.29296875 C14.3046875 2.390625 14.3046875 2.390625 18 3 C18.66 4.32 19.32 5.64 20 7 C12.74 5.35 5.48 3.7 -2 2 C-1.34 1.34 -0.68 0.68 0 0 Z " fill="#D9F8DF" transform="translate(222,314)"/>
<path d="M0 0 C2.09765625 0.41015625 2.09765625 0.41015625 4 1 C1.73437454 2.50842171 -0.53686163 4.00682251 -2.8125 5.5 C-3.45509766 5.92925781 -4.09769531 6.35851562 -4.75976562 6.80078125 C-9.66015625 10 -9.66015625 10 -13 10 C-13 9.34 -13 8.68 -13 8 C-12.34 8 -11.68 8 -11 8 C-11 7.34 -11 6.68 -11 6 C-9.35 5.67 -7.7 5.34 -6 5 C-6 4.34 -6 3.68 -6 3 C-5.01 3 -4.02 3 -3 3 C-2.2884375 2.2265625 -2.2884375 2.2265625 -1.5625 1.4375 C-1.046875 0.963125 -0.53125 0.48875 0 0 Z " fill="#80C995" transform="translate(366,423)"/>
<path d="M0 0 C0.33 0 0.66 0 1 0 C1.33 2.64 1.66 5.28 2 8 C1.2575 8.20625 0.515 8.4125 -0.25 8.625 C-3.79231177 10.39615589 -5.02446841 12.63427951 -7 16 C-7.66 15.67 -8.32 15.34 -9 15 C-8.43410156 14.16855469 -7.86820312 13.33710938 -7.28515625 12.48046875 C-6.55167969 11.39378906 -5.81820313 10.30710937 -5.0625 9.1875 C-4.33160156 8.10855469 -3.60070312 7.02960938 -2.84765625 5.91796875 C-0.90007384 3.10079982 -0.90007384 3.10079982 0 0 Z " fill="#5ABF78" transform="translate(317,276)"/>
<path d="M0 0 C2.475 0.495 2.475 0.495 5 1 C4.9278125 1.65226562 4.855625 2.30453125 4.78125 2.9765625 C4.28243834 7.6737056 3.87548754 12.26852656 4 17 C0.68341387 12.0251208 -0.38479461 5.96431647 0 0 Z " fill="#52BC73" transform="translate(202,255)"/>
<path d="M0 0 C-1.74256932 1.17773651 -3.49436407 2.34183179 -5.25 3.5 C-6.22453125 4.1496875 -7.1990625 4.799375 -8.203125 5.46875 C-11 7 -11 7 -15 7 C-14.34 6.67 -13.68 6.34 -13 6 C-13 4.68 -13 3.36 -13 2 C-11.88625 1.814375 -11.88625 1.814375 -10.75 1.625 C-8.03080536 1.1382925 -8.03080536 1.1382925 -5.9375 -0.125 C-3.51199432 -1.22038966 -2.48774391 -0.73442752 0 0 Z " fill="#4ABA6C" transform="translate(208,160)"/>
<path d="M0 0 C0.79921875 0.01804688 1.5984375 0.03609375 2.421875 0.0546875 C3.02515625 0.07789063 3.6284375 0.10109375 4.25 0.125 C1.56998165 1.9116789 -0.78128744 3.0572137 -3.75 4.25 C-4.61625 4.60320312 -5.4825 4.95640625 -6.375 5.3203125 C-8.75 6.125 -8.75 6.125 -11.75 6.125 C-11.75 5.465 -11.75 4.805 -11.75 4.125 C-10.76 4.125 -9.77 4.125 -8.75 4.125 C-8.75 3.465 -8.75 2.805 -8.75 2.125 C-5.68753253 0.34090198 -3.52920727 -0.10380021 0 0 Z " fill="#51BB72" transform="translate(219.75,152.875)"/>
<path d="M0 0 C0.598125 0.763125 1.19625 1.52625 1.8125 2.3125 C3.84004112 4.91335259 3.84004112 4.91335259 5.75 6.6875 C7 8 7 8 7 10 C8.32 10.66 9.64 11.32 11 12 C11 12.66 11 13.32 11 14 C11.66 14 12.32 14 13 14 C12.67 14.66 12.34 15.32 12 16 C11.01 16 10.02 16 9 16 C8.34 15.34 7.68 14.68 7 14 C7.66 14 8.32 14 9 14 C8.4946875 13.44570313 7.989375 12.89140625 7.46875 12.3203125 C6.8190625 11.59585937 6.169375 10.87140625 5.5 10.125 C4.8503125 9.40570313 4.200625 8.68640625 3.53125 7.9453125 C2 6 2 6 2 4 C1.34 4 0.68 4 0 4 C0 2.68 0 1.36 0 0 Z " fill="#59B975" transform="translate(250,329)"/>
<path d="M0 0 C0 3.38023517 -0.87455622 5.83468937 -2 9 C-2.99 9 -3.98 9 -5 9 C-5.0825 9.78375 -5.165 10.5675 -5.25 11.375 C-6 14 -6 14 -8.0625 15.3125 C-9.0215625 15.6528125 -9.0215625 15.6528125 -10 16 C-8.61936434 12.14254559 -6.82183102 9.07512134 -4.4375 5.75 C-3.81746094 4.87859375 -3.19742188 4.0071875 -2.55859375 3.109375 C-1 1 -1 1 0 0 Z " fill="#7BCA91" transform="translate(75,126)"/>
<path d="M0 0 C0.99 0.495 0.99 0.495 2 1 C2 2.65 2 4.3 2 6 C2.66 6 3.32 6 4 6 C4 9.96 4 13.92 4 18 C1.03393651 12.06787301 -0.33371704 6.67434076 0 0 Z " fill="#70C589" transform="translate(39,292)"/>
<path d="M0 0 C1.37562854 1.28965176 2.70766393 2.62689293 4 4 C4 4.66 4 5.32 4 6 C4.66 6 5.32 6 6 6 C9.28571429 13.42857143 9.28571429 13.42857143 10 17 C4.96473463 12.71069987 1.33991136 6.47869228 0 0 Z " fill="#50B870" transform="translate(208,278)"/>
<path d="M0 0 C1.59373901 2.39060851 2.65297076 4.30828179 3.6875 6.9375 C3.95949219 7.60652344 4.23148437 8.27554688 4.51171875 8.96484375 C5.0787676 11.32830338 4.76024003 12.7192799 4 15 C1.23776722 12.23776722 1.42143709 9.79293383 1 6 C0.01 5.67 -0.98 5.34 -2 5 C-1.34 3.35 -0.68 1.7 0 0 Z " fill="#67C281" transform="translate(445,178)"/>
<path d="M0 0 C-1 2 -2 4 -3 6 C-3.66 6 -4.32 6 -5 6 C-5 6.66 -5 7.32 -5 8 C-5.66 8 -6.32 8 -7 8 C-7 8.66 -7 9.32 -7 10 C-7.66 10 -8.32 10 -9 10 C-9.33 10.66 -9.66 11.32 -10 12 C-10.1875 9.625 -10.1875 9.625 -10 7 C-7 5 -7 5 -4 5 C-4 3.68 -4 2.36 -4 1 C-2 0 -2 0 0 0 Z " fill="#6EC48A" transform="translate(405,390)"/>
<path d="M0 0 C0.99 0.495 0.99 0.495 2 1 C2 1.99 2 2.98 2 4 C2.66 4 3.32 4 4 4 C4.33 6.31 4.66 8.62 5 11 C5.66 11 6.32 11 7 11 C7.33 13.31 7.66 15.62 8 18 C4.72419972 16.36209986 4.13469687 12.82626007 2.875 9.5625 C2.59785156 8.86833984 2.32070313 8.17417969 2.03515625 7.45898438 C0 2.28086515 0 2.28086515 0 0 Z " fill="#77CC8F" transform="translate(48,325)"/>
<path d="M0 0 C8.91 1.98 8.91 1.98 18 4 C18 4.33 18 4.66 18 5 C12.26786954 5.23396451 7.38737652 5.08898273 2 3 C1.34 2.01 0.68 1.02 0 0 Z " fill="#5DBD79" transform="translate(214,314)"/>
<path d="M0 0 C0.66 0 1.32 0 2 0 C5 4.38461538 5 4.38461538 5 7 C5.99 7.33 6.98 7.66 8 8 C8 8.99 8 9.98 8 11 C8.99 11.33 9.98 11.66 11 12 C10.34 12.66 9.68 13.32 9 14 C0 3.89320388 0 3.89320388 0 0 Z " fill="#DDFAE5" transform="translate(176,281)"/>
<path d="M0 0 C1.48828125 1.05078125 1.48828125 1.05078125 3 3 C3.29296875 6.35546875 3.29296875 6.35546875 3.1875 10.1875 C3.16042969 11.45980469 3.13335937 12.73210937 3.10546875 14.04296875 C3.07066406 15.01878906 3.03585938 15.99460937 3 17 C0.57520264 13.36280395 0.61337423 11.14296518 0.375 6.8125 C0.30023438 5.54019531 0.22546875 4.26789063 0.1484375 2.95703125 C0.09945312 1.98121094 0.05046875 1.00539063 0 0 Z " fill="#6DC586" transform="translate(36,275)"/>
<path d="M0 0 C0.99 0.33 1.98 0.66 3 1 C0.71540242 3.28459758 -1.12537344 3.97129748 -4.125 5.125 C-5.03507812 5.47820312 -5.94515625 5.83140625 -6.8828125 6.1953125 C-7.58148438 6.46085937 -8.28015625 6.72640625 -9 7 C-8.67 5.02 -8.34 3.04 -8 1 C-5.36 1.33 -2.72 1.66 0 2 C0 1.34 0 0.68 0 0 Z " fill="#65C27E" transform="translate(329,443)"/>
<path d="M0 0 C0.66 0 1.32 0 2 0 C2 0.66 2 1.32 2 2 C2.99 2.33 3.98 2.66 5 3 C5 4.32 5 5.64 5 7 C5.99 7.33 6.98 7.66 8 8 C8.33 9.98 8.66 11.96 9 14 C4.4434473 10.28725335 2.42599607 5.20992598 0 0 Z " fill="#7FCF96" transform="translate(60,352)"/>
<path d="M0 0 C5.08938811 1.59043379 8.87456643 4.7446951 13 8 C11.203125 8.61328125 11.203125 8.61328125 9 9 C5.75 7.1875 5.75 7.1875 3 5 C3 4.34 3 3.68 3 3 C2.34 3 1.68 3 1 3 C0.67 2.01 0.34 1.02 0 0 Z " fill="#73CB8E" transform="translate(360,72)"/>
<path d="M0 0 C1.79379098 0.44994757 3.58498928 0.91024143 5.375 1.375 C6.37273437 1.63023438 7.37046875 1.88546875 8.3984375 2.1484375 C11 3 11 3 13 5 C11.9275 4.979375 10.855 4.95875 9.75 4.9375 C6.85209576 4.9857984 4.71387859 5.13155885 2 6 C1.34 4.02 0.68 2.04 0 0 Z " fill="#65C380" transform="translate(312,49)"/>
<path d="M0 0 C3.21764451 4.82646677 4.36261136 10.19821824 4 16 C3.01 15.34 2.02 14.68 1 14 C0.48828125 10.7421875 0.48828125 10.7421875 0.3125 6.875 C0.24675781 5.59367188 0.18101562 4.31234375 0.11328125 2.9921875 C0.07589844 2.00476563 0.03851563 1.01734375 0 0 Z " fill="#70C88C" transform="translate(450,193)"/>
<path d="M0 0 C0.99 0.33 1.98 0.66 3 1 C2.34 1 1.68 1 1 1 C1 1.66 1 2.32 1 3 C-0.390625 4.33203125 -0.390625 4.33203125 -2.25 5.8125 C-5.25493233 8.29324535 -7.68093994 10.84607831 -10 14 C-9.71591906 9.31266455 -7.48550729 6.79071085 -4.5703125 3.35546875 C-3 2 -3 2 0 2 C0 1.34 0 0.68 0 0 Z " fill="#DCFAE1" transform="translate(221,168)"/>
<path d="M0 0 C0.66 0 1.32 0 2 0 C2 1.65 2 3.3 2 5 C1.360625 5.226875 0.72125 5.45375 0.0625 5.6875 C-2.27193661 6.85250896 -2.27193661 6.85250896 -2.75 9.625 C-2.8325 10.40875 -2.915 11.1925 -3 12 C-3.99 12.33 -4.98 12.66 -6 13 C-4.31326082 8.50202887 -2.18326108 4.27113698 0 0 Z " fill="#79CB92" transform="translate(63,143)"/>
<path d="M0 0 C0 0.66 0 1.32 0 2 C-1.11375 2.4125 -2.2275 2.825 -3.375 3.25 C-6.37631898 4.49544958 -6.37631898 4.49544958 -8.25 7.125 C-8.4975 7.74375 -8.745 8.3625 -9 9 C-9.99 9.33 -10.98 9.66 -12 10 C-12 9.01 -12 8.02 -12 7 C-11.34 7 -10.68 7 -10 7 C-9.979375 6.401875 -9.95875 5.80375 -9.9375 5.1875 C-9 3 -9 3 -5.5625 1.25 C-2 0 -2 0 0 0 Z " fill="#64C57E" transform="translate(172,52)"/>
<path d="M0 0 C0.33 1.32 0.66 2.64 1 4 C0.01 4 -0.98 4 -2 4 C-2.33 5.32 -2.66 6.64 -3 8 C-3.66 8 -4.32 8 -5 8 C-5 8.66 -5 9.32 -5 10 C-5.66 10 -6.32 10 -7 10 C-7.33 11.32 -7.66 12.64 -8 14 C-8.66 14 -9.32 14 -10 14 C-9.34 12.35 -8.68 10.7 -8 9 C-7.34 9 -6.68 9 -6 9 C-5.7525 8.443125 -5.505 7.88625 -5.25 7.3125 C-3.78393985 4.60028873 -1.97010529 2.36412635 0 0 Z " fill="#84CA95" transform="translate(86,112)"/>
<path d="M0 0 C3.04049801 3.64859761 4.96518762 7.7444533 7 12 C5.68 11.67 4.36 11.34 3 11 C3 10.34 3 9.68 3 9 C2.34 9 1.68 9 1 9 C0.67 6.03 0.34 3.06 0 0 Z " fill="#5CBE78" transform="translate(172,275)"/>
<path d="M0 0 C2.3828125 0.2421875 2.3828125 0.2421875 5.125 0.875 C6.03507812 1.07867187 6.94515625 1.28234375 7.8828125 1.4921875 C8.58148438 1.65976563 9.28015625 1.82734375 10 2 C10.33 2.99 10.66 3.98 11 5 C6.71 4.01 2.42 3.02 -2 2 C-1.34 1.34 -0.68 0.68 0 0 Z " fill="#5BBE7C" transform="translate(268,152)"/>
<path d="M0 0 C6.45027515 0.26327654 9.47915791 2.50664023 14 7 C13.01 7.495 13.01 7.495 12 8 C11.13375 7.21625 10.2675 6.4325 9.375 5.625 C6.44943553 3.16613272 3.72463238 1.97549896 0 1 C0 0.67 0 0.34 0 0 Z " fill="#57B976" transform="translate(234,319)"/>
<path d="M0 0 C0.66 1.32 1.32 2.64 2 4 C-1.4019487 6.09350689 -4.05272412 6.17942163 -8 6 C-5.38485683 3.87961365 -2.80362384 1.86908256 0 0 Z " fill="#56BD75" transform="translate(294,304)"/>
<path d="M0 0 C0.66 0 1.32 0 2 0 C1.28269264 3.23165844 0.18684926 6.18707922 -1.0625 9.25 C-1.42472656 10.14203125 -1.78695312 11.0340625 -2.16015625 11.953125 C-2.43730469 12.62859375 -2.71445313 13.3040625 -3 14 C-4.1700097 10.08263419 -3.69584017 7.02040985 -3 3 C-2.01 3 -1.02 3 0 3 C0 2.01 0 1.02 0 0 Z " fill="#59BD78" transform="translate(173,192)"/>
<path d="M0 0 C-1.75722991 4.31320068 -4.8062168 7.9031084 -9 10 C-7.81442213 5.25768853 -5.66615657 0 0 0 Z " fill="#4CB66E" transform="translate(224,170)"/>
<path d="M0 0 C1 2 1 2 0.25 4.5 C-1 7 -1 7 -4 9 C-4.99 9 -5.98 9 -7 9 C-7 8.34 -7 7.68 -7 7 C-6.34 7 -5.68 7 -5 7 C-5 6.34 -5 5.68 -5 5 C-4.34 5 -3.68 5 -3 5 C-2.690625 4.360625 -2.38125 3.72125 -2.0625 3.0625 C-1 1 -1 1 0 0 Z " fill="#73CC8E" transform="translate(94,103)"/>
<path d="M0 0 C1.75128818 0.28382946 3.50100003 0.57739529 5.25 0.875 C6.71179688 1.11863281 6.71179688 1.11863281 8.203125 1.3671875 C10.77264117 1.94855848 12.72071056 2.70840265 15 4 C9.5610835 4.21755666 5.12919186 4.10428384 0 2 C0 1.34 0 0.68 0 0 Z " fill="#7FCC92" transform="translate(290,43)"/>
<path d="M0 0 C1.65 0 3.3 0 5 0 C5 0.66 5 1.32 5 2 C5.99 2 6.98 2 8 2 C8.33 2.66 8.66 3.32 9 4 C9.99 4.33 10.98 4.66 12 5 C11.67 5.66 11.34 6.32 11 7 C9.35063087 6.21572648 7.70558873 5.42234741 6.0625 4.625 C5.14597656 4.18414062 4.22945312 3.74328125 3.28515625 3.2890625 C1 2 1 2 0 0 Z " fill="#74C889" transform="translate(140,433)"/>
<path d="M0 0 C0.33 0 0.66 0 1 0 C0.8858134 1.93816735 0.75826577 3.87555099 0.625 5.8125 C0.55539063 6.89144531 0.48578125 7.97039062 0.4140625 9.08203125 C0 12 0 12 -2 15 C-2.05429959 13.25034642 -2.09292823 11.50020213 -2.125 9.75 C-2.15980469 8.28820312 -2.15980469 8.28820312 -2.1953125 6.796875 C-1.99862781 3.9803502 -1.44568916 2.39050964 0 0 Z " fill="#58BA75" transform="translate(167,209)"/>
<path d="M0 0 C0.66 0 1.32 0 2 0 C2 0.66 2 1.32 2 2 C2.66 2.33 3.32 2.66 4 3 C2.35 3.66 0.7 4.32 -1 5 C-1 5.66 -1 6.32 -1 7 C-2.65 7.66 -4.3 8.32 -6 9 C-6.33 8.01 -6.66 7.02 -7 6 C-5.35 6 -3.7 6 -2 6 C-1.67 5.01 -1.34 4.02 -1 3 C-0.34 3 0.32 3 1 3 C0.67 2.01 0.34 1.02 0 0 Z " fill="#65C17E" transform="translate(376,413)"/>
<path d="M0 0 C1.18414294 3.55242882 0.69535532 4.69830562 -0.4375 8.1875 C-0.72496094 9.08855469 -1.01242187 9.98960937 -1.30859375 10.91796875 C-1.53675781 11.60503906 -1.76492188 12.29210937 -2 13 C-2.33 13 -2.66 13 -3 13 C-3.4726477 4.80743982 -3.4726477 4.80743982 -1.5 1.4375 C-0.7575 0.7259375 -0.7575 0.7259375 0 0 Z " fill="#77C98D" transform="translate(450,306)"/>
<path d="M0 0 C0 0.99 0 1.98 0 3 C-2.31 3.33 -4.62 3.66 -7 4 C-7 4.66 -7 5.32 -7 6 C-8.32 5.67 -9.64 5.34 -11 5 C-3.57142857 0.57142857 -3.57142857 0.57142857 0 0 Z " fill="#60BE80" transform="translate(233,164)"/>
<path d="M0 0 C1.14926266 0.95421808 2.29430541 1.91352045 3.4375 2.875 C4.07558594 3.40867187 4.71367187 3.94234375 5.37109375 4.4921875 C7 6 7 6 8 8 C5.2980567 7.63487253 3.41609148 7.30130763 1.1875 5.6875 C0 4 0 4 0 0 Z " fill="#71CD89" transform="translate(388,93)"/>
<path d="M0 0 C2.97 0.99 5.94 1.98 9 3 C9 3.99 9 4.98 9 6 C8.01 6 7.02 6 6 6 C5.67 5.34 5.34 4.68 5 4 C4.01 3.7834375 4.01 3.7834375 3 3.5625 C2.34 3.376875 1.68 3.19125 1 3 C0.67 2.01 0.34 1.02 0 0 Z " fill="#70C98B" transform="translate(326,54)"/>
<path d="M0 0 C1.32 0.33 2.64 0.66 4 1 C3.19152271 2.16945792 2.37810888 3.33550461 1.5625 4.5 C1.11003906 5.1496875 0.65757812 5.799375 0.19140625 6.46875 C-0.20175781 6.9740625 -0.59492188 7.479375 -1 8 C-1.33 8 -1.66 8 -2 8 C-2 6.02 -2 4.04 -2 2 C-1.34 2 -0.68 2 0 2 C0 1.34 0 0.68 0 0 Z " fill="#6DC586" transform="translate(424,361)"/>
<path d="M0 0 C1.98 0 3.96 0 6 0 C2.39042389 3.2910841 -0.12637153 4.54663921 -5 5 C-5 4.34 -5 3.68 -5 3 C-3.68 3 -2.36 3 -1 3 C-0.67 2.01 -0.34 1.02 0 0 Z " fill="#E0F9E3" transform="translate(320,355)"/>
<path d="M0 0 C3.3 0.66 6.6 1.32 10 2 C9.67 2.99 9.34 3.98 9 5 C8.278125 4.67 7.55625 4.34 6.8125 4 C3.98302573 2.99396471 1.97104534 2.83022598 -1 3 C-0.67 2.01 -0.34 1.02 0 0 Z " fill="#CDF7D7" transform="translate(325,338)"/>
<path d="M0 0 C1.45922693 0.11409593 2.91740598 0.24165544 4.375 0.375 C5.59316406 0.47941406 5.59316406 0.47941406 6.8359375 0.5859375 C9 1 9 1 11 3 C10.34 3 9.68 3 9 3 C9 3.66 9 4.32 9 5 C5.13151386 3.88243734 2.71077243 2.97126708 0 0 Z " fill="#DEF9E4" transform="translate(199,306)"/>
<path d="M0 0 C3.66464055 0.4952217 5.70832354 1.0208206 8 4 C8.33 4.99 8.66 5.98 9 7 C5.18315774 5.44499019 2.80804268 2.96404505 0 0 Z " fill="#DAF9E3" transform="translate(190,299)"/>
<path d="M0 0 C3.63 0 7.26 0 11 0 C7.09567131 1.95216435 4.27786748 2.50639991 0 3 C0 2.01 0 1.02 0 0 Z " fill="#6CC686" transform="translate(298,453)"/>
<path d="M0 0 C1.98 0 3.96 0 6 0 C6 0.66 6 1.32 6 2 C7.98 2 9.96 2 12 2 C12 2.66 12 3.32 12 4 C10.56138706 3.91253716 9.12402492 3.80434652 7.6875 3.6875 C6.88699219 3.62949219 6.08648437 3.57148438 5.26171875 3.51171875 C2.63727666 2.91793306 1.69179328 2.04219706 0 0 Z " fill="#53BB74" transform="translate(170,447)"/>
<path d="M0 0 C0.33 1.32 0.66 2.64 1 4 C-0.75 5.5625 -0.75 5.5625 -3 7 C-4.32 6.67 -5.64 6.34 -7 6 C-4.69 4.02 -2.38 2.04 0 0 Z " fill="#4FB871" transform="translate(330,351)"/>
<path d="M0 0 C0.33 0 0.66 0 1 0 C1.16702456 4.34263862 1.12999997 7.20960634 -1 11 C-1.22174933 9.54364629 -1.42698698 8.08477044 -1.625 6.625 C-1.74101562 5.81289063 -1.85703125 5.00078125 -1.9765625 4.1640625 C-1.98429687 3.44992187 -1.99203125 2.73578125 -2 2 C-1.34 1.34 -0.68 0.68 0 0 Z " fill="#46B567" transform="translate(286,265)"/>
<path d="M0 0 C2.22825644 2.22825644 2.69239369 3.65761628 3.625 6.625 C4.01558594 7.85089844 4.01558594 7.85089844 4.4140625 9.1015625 C4.60742188 9.72804687 4.80078125 10.35453125 5 11 C2 10 2 10 0.8125 7.75 C0.00061706 5.00208853 -0.16260121 2.84552111 0 0 Z " fill="#7AC98F" transform="translate(439,163)"/>
<path d="M0 0 C0.33 1.32 0.66 2.64 1 4 C1.99 4 2.98 4 4 4 C4.33 4.99 4.66 5.98 5 7 C1.06326356 5.68775452 -1.22719294 4.08089673 -4 1 C-2.68 0.67 -1.36 0.34 0 0 Z " fill="#7FD098" transform="translate(131,424)"/>
<path d="M0 0 C0.99 0.33 1.98 0.66 3 1 C3.33 3.31 3.66 5.62 4 8 C2 6.8125 2 6.8125 0 5 C-0.25 2.3125 -0.25 2.3125 0 0 Z " fill="#56C271" transform="translate(89,388)"/>
<path d="M0 0 C0.33 0.66 0.66 1.32 1 2 C0.22265625 3.9453125 0.22265625 3.9453125 -0.9375 6.125 C-1.31777344 6.84945312 -1.69804687 7.57390625 -2.08984375 8.3203125 C-2.39019531 8.87460938 -2.69054687 9.42890625 -3 10 C-3.66 10 -4.32 10 -5 10 C-3.84414715 6.08788267 -2.64465038 3.1254959 0 0 Z " fill="#DCFAE1" transform="translate(180,184)"/>
<path d="M0 0 C0 0.99 0 1.98 0 3 C-1 4 -1 4 -3.94140625 4.09765625 C-5.73384766 4.08025391 -5.73384766 4.08025391 -7.5625 4.0625 C-9.35880859 4.04896484 -9.35880859 4.04896484 -11.19140625 4.03515625 C-12.11824219 4.02355469 -13.04507812 4.01195312 -14 4 C-14 3.67 -14 3.34 -14 3 C-12.86111328 2.92652344 -12.86111328 2.92652344 -11.69921875 2.8515625 C-10.20841797 2.73941406 -10.20841797 2.73941406 -8.6875 2.625 C-7.70136719 2.55539062 -6.71523438 2.48578125 -5.69921875 2.4140625 C-2.78471567 2.16134528 -2.78471567 2.16134528 0 0 Z " fill="#D9FAE2" transform="translate(321,344)"/>
<path d="M0 0 C0.99 0.33 1.98 0.66 3 1 C2.67 1.66 2.34 2.32 2 3 C1.34 3 0.68 3 0 3 C-0.66 4.65 -1.32 6.3 -2 8 C-2.12375 7.360625 -2.2475 6.72125 -2.375 6.0625 C-2.684375 5.0415625 -2.684375 5.0415625 -3 4 C-3.66 3.67 -4.32 3.34 -5 3 C-3.35 2.34 -1.7 1.68 0 1 C0 0.67 0 0.34 0 0 Z " fill="#51BC71" transform="translate(183,176)"/>
<path d="M0 0 C0.66 0.33 1.32 0.66 2 1 C-0.31 3.31 -2.62 5.62 -5 8 C-5.33 6.68 -5.66 5.36 -6 4 C-4.68 3.67 -3.36 3.34 -2 3 C-2 2.34 -2 1.68 -2 1 C-1.34 0.67 -0.68 0.34 0 0 Z " fill="#52B36E" transform="translate(192,168)"/>
<path d="M0 0 C3.0916909 2.52956528 3.90931332 5.22454612 5 9 C2.525 8.01 2.525 8.01 0 7 C0 4.69 0 2.38 0 0 Z " fill="#77C98E" transform="translate(434,153)"/>
<path d="M0 0 C2 1.125 2 1.125 4 3 C4.25 6.1875 4.25 6.1875 4 9 C3.01 9.33 2.02 9.66 1 10 C1.020625 8.906875 1.04125 7.81375 1.0625 6.6875 C1.18544452 3.05615809 1.18544452 3.05615809 0 0 Z " fill="#65C57C" transform="translate(408,114)"/>
<path d="M0 0 C0 3.16880694 -0.2058242 4.43689172 -2 7 C-4.625 7.75 -4.625 7.75 -7 8 C-7 7.34 -7 6.68 -7 6 C-6.34 6 -5.68 6 -5 6 C-5 5.34 -5 4.68 -5 4 C-3.37373596 2.61767557 -1.7074998 1.28062485 0 0 Z " fill="#83CF95" transform="translate(111,87)"/>
<path d="M0 0 C1.43861294 0.08746284 2.87597508 0.19565348 4.3125 0.3125 C5.11300781 0.37050781 5.91351563 0.42851562 6.73828125 0.48828125 C9.36272334 1.08206694 10.30820672 1.95780294 12 4 C7.80530429 3.40075776 3.99000166 2.42500059 0 1 C0 0.67 0 0.34 0 0 Z " fill="#87CF9E" transform="translate(176,450)"/>
<path d="M0 0 C2.31 0 4.62 0 7 0 C7.33 1.32 7.66 2.64 8 4 C2.25 2.25 2.25 2.25 0 0 Z " fill="#79CB8F" transform="translate(152,440)"/>
<path d="M0 0 C-1 3 -1 3 -4 5 C-4.99 5 -5.98 5 -7 5 C-7 4.34 -7 3.68 -7 3 C-6.34 3 -5.68 3 -5 3 C-5 2.34 -5 1.68 -5 1 C-3 0 -3 0 0 0 Z " fill="#6DC486" transform="translate(360,428)"/>
<path d="M0 0 C1 3 1 3 0.22265625 5.04296875 C-0.16019531 5.75066406 -0.54304688 6.45835937 -0.9375 7.1875 C-1.31777344 7.90292969 -1.69804687 8.61835938 -2.08984375 9.35546875 C-2.54037109 10.16951172 -2.54037109 10.16951172 -3 11 C-3.33 11 -3.66 11 -4 11 C-4 9.35 -4 7.7 -4 6 C-3.34 6 -2.68 6 -2 6 C-2.33 4.68 -2.66 3.36 -3 2 C-2.01 2 -1.02 2 0 2 C0 1.34 0 0.68 0 0 Z " fill="#88CE9A" transform="translate(438,339)"/>
<path d="M0 0 C0.33 0 0.66 0 1 0 C1 2.97 1 5.94 1 9 C0.01 9.33 -0.98 9.66 -2 10 C-1.46274105 6.62294375 -0.88935377 3.303314 0 0 Z " fill="#61C07D" transform="translate(206,192)"/>
<path d="M0 0 C0.33 0 0.66 0 1 0 C1.125 6.625 1.125 6.625 0 10 C-0.66 10 -1.32 10 -2 10 C-1.125 2.25 -1.125 2.25 0 0 Z " fill="#84CF9B" transform="translate(43,190)"/>
<path d="M0 0 C1.98 0.66 3.96 1.32 6 2 C6.33 3.65 6.66 5.3 7 7 C5.83040013 6.02433888 4.66438823 5.044375 3.5 4.0625 C2.8503125 3.51722656 2.200625 2.97195312 1.53125 2.41015625 C1.0259375 1.94480469 0.520625 1.47945312 0 1 C0 0.67 0 0.34 0 0 Z " fill="#D7F9E2" transform="translate(270,171)"/>
<path d="M0 0 C2.31 0.66 4.62 1.32 7 2 C7.33 3.65 7.66 5.3 8 7 C6.66382648 6.02471263 5.3311249 5.04466681 4 4.0625 C3.2575 3.51722656 2.515 2.97195312 1.75 2.41015625 C1.1725 1.94480469 0.595 1.47945312 0 1 C0 0.67 0 0.34 0 0 Z " fill="#51B671" transform="translate(300,169)"/>
<path d="M0 0 C2.475 0.495 2.475 0.495 5 1 C5 2.98 5 4.96 5 7 C2.47411298 4.63707344 1.11179163 3.33537489 0 0 Z " fill="#80CE95" transform="translate(70,368)"/>
<path d="M0 0 C0.66 0.33 1.32 0.66 2 1 C1.01 3.97 0.02 6.94 -1 10 C-1.33 10 -1.66 10 -2 10 C-2.17942163 6.05272412 -2.09350689 3.4019487 0 0 Z " fill="#79C98F" transform="translate(442,327)"/>
<path d="M0 0 C3.465 1.98 3.465 1.98 7 4 C6.360625 4.103125 5.72125 4.20625 5.0625 4.3125 C4.381875 4.539375 3.70125 4.76625 3 5 C2.67 5.99 2.34 6.98 2 8 C0.875 4.25 0.875 4.25 2 2 C1.34 2 0.68 2 0 2 C0 1.34 0 0.68 0 0 Z " fill="#4DB66C" transform="translate(192,302)"/>
<path d="M0 0 C0.33 0 0.66 0 1 0 C1.33 3.96 1.66 7.92 2 12 C1.01 12 0.02 12 -1 12 C-0.67 8.04 -0.34 4.08 0 0 Z " fill="#60BE7C" transform="translate(166,252)"/>
<path d="M0 0 C2.79872437 2.52788007 4.45773019 4.20411134 5 8 C2 7 2 7 0 4 C0 2.68 0 1.36 0 0 Z " fill="#6DC281" transform="translate(424,136)"/>
<path d="M0 0 C1.485 0.99 1.485 0.99 3 2 C3 2.66 3 3.32 3 4 C3.66 4 4.32 4 5 4 C4.67 4.66 4.34 5.32 4 6 C3.01 6 2.02 6 1 6 C0.34 5.34 -0.32 4.68 -1 4 C-0.34 4 0.32 4 1 4 C0.67 2.68 0.34 1.36 0 0 Z " fill="#5FC47B" transform="translate(258,339)"/>
<path d="M0 0 C1.32 0.66 2.64 1.32 4 2 C4 4.31 4 6.62 4 9 C3.67 9 3.34 9 3 9 C3 7.35 3 5.7 3 4 C2.34 4 1.68 4 1 4 C1 3.34 1 2.68 1 2 C0.34 1.67 -0.32 1.34 -1 1 C-0.67 0.67 -0.34 0.34 0 0 Z " fill="#3DB865" transform="translate(450,207)"/>
<path d="M0 0 C0.33 0.99 0.66 1.98 1 3 C-0.4375 5.1875 -0.4375 5.1875 -2 7 C-2.99 6.67 -3.98 6.34 -5 6 C-4.34 5.01 -3.68 4.02 -3 3 C-2.34 3 -1.68 3 -1 3 C-0.67 2.01 -0.34 1.02 0 0 Z " fill="#D9F8DF" transform="translate(186,176)"/>
<path d="M0 0 C0.66 0.33 1.32 0.66 2 1 C1.01 2.485 1.01 2.485 0 4 C-0.66 4 -1.32 4 -2 4 C-2 4.66 -2 5.32 -2 6 C-3.32 5.67 -4.64 5.34 -6 5 C-4.02 3.35 -2.04 1.7 0 0 Z " fill="#D5F5DB" transform="translate(198,165)"/>
<path d="M0 0 C1.98 0 3.96 0 6 0 C6 1.65 6 3.3 6 5 C1.125 2.25 1.125 2.25 0 0 Z " fill="#5BBE79" transform="translate(294,164)"/>
<path d="M0 0 C0.66 0.33 1.32 0.66 2 1 C0.25 3.0625 0.25 3.0625 -2 5 C-4.25 4.75 -4.25 4.75 -6 4 C-4.02 2.68 -2.04 1.36 0 0 Z " fill="#87CC98" transform="translate(133,71)"/>
</svg>
